<svg width="249" height="99" viewBox="0 0 249 99" fill="none" xmlns="http://www.w3.org/2000/svg">
<path d="M117.991 60.5719C116.058 60.5719 114.336 60.2367 112.824 59.5661C111.312 58.8824 110.115 57.8766 109.234 56.5487C108.367 55.2076 107.933 53.5378 107.933 51.5393C107.933 49.8564 108.242 48.443 108.86 47.2992C109.478 46.1553 110.319 45.2349 111.384 44.5381C112.449 43.8413 113.659 43.3154 115.013 42.9604C116.38 42.6054 117.813 42.3556 119.312 42.2109C121.074 42.0269 122.494 41.8559 123.572 41.6982C124.65 41.5272 125.433 41.2774 125.919 40.9487C126.405 40.62 126.649 40.1336 126.649 39.4893V39.371C126.649 38.122 126.254 37.1556 125.465 36.4719C124.69 35.7882 123.585 35.4464 122.152 35.4464C120.64 35.4464 119.437 35.7816 118.543 36.4522C117.649 37.1096 117.057 37.9379 116.768 38.9371L108.998 38.306C109.392 36.4653 110.168 34.8744 111.325 33.5333C112.482 32.1791 113.974 31.1404 115.802 30.4173C117.642 29.681 119.772 29.3129 122.192 29.3129C123.875 29.3129 125.485 29.5101 127.023 29.9045C128.575 30.299 129.949 30.9103 131.145 31.7387C132.355 32.567 133.308 33.632 134.005 34.9336C134.702 36.2221 135.05 37.767 135.05 39.5682V60H127.083V55.7993H126.846C126.359 56.7459 125.709 57.5808 124.893 58.3039C124.078 59.0139 123.099 59.5727 121.955 59.9803C120.811 60.3747 119.49 60.5719 117.991 60.5719ZM120.397 54.7737C121.633 54.7737 122.724 54.5305 123.671 54.044C124.617 53.5444 125.36 52.8739 125.899 52.0324C126.438 51.1909 126.708 50.2377 126.708 49.1727V45.9581C126.445 46.129 126.083 46.2868 125.623 46.4314C125.176 46.5629 124.67 46.6878 124.105 46.8061C123.539 46.9113 122.974 47.0099 122.409 47.1019C121.843 47.1808 121.33 47.2531 120.87 47.3189C119.884 47.4635 119.023 47.6936 118.287 48.0091C117.55 48.3247 116.978 48.752 116.571 49.2911C116.163 49.817 115.96 50.4744 115.96 51.2632C115.96 52.4071 116.374 53.2814 117.202 53.8862C118.043 54.4779 119.108 54.7737 120.397 54.7737ZM149.096 60.5719C147.163 60.5719 145.441 60.2367 143.929 59.5661C142.417 58.8824 141.22 57.8766 140.339 56.5487C139.471 55.2076 139.038 53.5378 139.038 51.5393C139.038 49.8564 139.347 48.443 139.964 47.2992C140.582 46.1553 141.424 45.2349 142.489 44.5381C143.554 43.8413 144.763 43.3154 146.118 42.9604C147.485 42.6054 148.918 42.3556 150.417 42.2109C152.179 42.0269 153.599 41.8559 154.677 41.6982C155.755 41.5272 156.537 41.2774 157.024 40.9487C157.51 40.62 157.754 40.1336 157.754 39.4893V39.371C157.754 38.122 157.359 37.1556 156.57 36.4719C155.795 35.7882 154.69 35.4464 153.257 35.4464C151.745 35.4464 150.542 35.7816 149.648 36.4522C148.754 37.1096 148.162 37.9379 147.873 38.9371L140.103 38.306C140.497 36.4653 141.273 34.8744 142.43 33.5333C143.587 32.1791 145.079 31.1404 146.907 30.4173C148.747 29.681 150.877 29.3129 153.296 29.3129C154.979 29.3129 156.59 29.5101 158.128 29.9045C159.68 30.299 161.054 30.9103 162.25 31.7387C163.46 32.567 164.413 33.632 165.11 34.9336C165.807 36.2221 166.155 37.767 166.155 39.5682V60H158.187V55.7993H157.951C157.464 56.7459 156.813 57.5808 155.998 58.3039C155.183 59.0139 154.204 59.5727 153.06 59.9803C151.916 60.3747 150.595 60.5719 149.096 60.5719ZM151.502 54.7737C152.738 54.7737 153.829 54.5305 154.776 54.044C155.722 53.5444 156.465 52.8739 157.004 52.0324C157.543 51.1909 157.813 50.2377 157.813 49.1727V45.9581C157.55 46.129 157.188 46.2868 156.728 46.4314C156.281 46.5629 155.775 46.6878 155.209 46.8061C154.644 46.9113 154.079 47.0099 153.513 47.1019C152.948 47.1808 152.435 47.2531 151.975 47.3189C150.989 47.4635 150.128 47.6936 149.392 48.0091C148.655 48.3247 148.083 48.752 147.676 49.2911C147.268 49.817 147.064 50.4744 147.064 51.2632C147.064 52.4071 147.478 53.2814 148.307 53.8862C149.148 54.4779 150.213 54.7737 151.502 54.7737ZM171.562 71.3598V29.7073H179.846V34.7955H180.22C180.588 33.9804 181.121 33.1521 181.818 32.3106C182.528 31.456 183.448 30.746 184.579 30.1806C185.723 29.6021 187.143 29.3129 188.839 29.3129C191.048 29.3129 193.085 29.8914 194.952 31.0484C196.819 32.1923 198.312 33.9212 199.429 36.2352C200.547 38.5361 201.106 41.4221 201.106 44.8931C201.106 48.2721 200.56 51.1252 199.469 53.4524C198.391 55.7664 196.918 57.5216 195.051 58.7181C193.197 59.9014 191.12 60.493 188.819 60.493C187.189 60.493 185.802 60.2235 184.658 59.6845C183.527 59.1454 182.6 58.4683 181.877 57.6531C181.154 56.8248 180.602 55.9899 180.22 55.1484H179.964V71.3598H171.562ZM179.786 44.8537C179.786 46.6549 180.036 48.2261 180.536 49.5672C181.035 50.9083 181.759 51.9535 182.705 52.7029C183.652 53.4392 184.802 53.8074 186.156 53.8074C187.524 53.8074 188.681 53.4326 189.628 52.6832C190.574 51.9206 191.291 50.8688 191.777 49.5277C192.277 48.1735 192.527 46.6155 192.527 44.8537C192.527 43.105 192.283 41.5667 191.797 40.2388C191.31 38.9108 190.594 37.8721 189.647 37.1227C188.701 36.3733 187.537 35.9986 186.156 35.9986C184.789 35.9986 183.632 36.3601 182.685 37.0833C181.752 37.8064 181.035 38.8319 180.536 40.1599C180.036 41.4878 179.786 43.0524 179.786 44.8537ZM213.997 19.6098V60H205.596V19.6098H213.997ZM224.804 71.3598C223.739 71.3598 222.739 71.2743 221.806 71.1034C220.885 70.9456 220.123 70.7418 219.518 70.492L221.411 64.2205C222.397 64.5229 223.285 64.6872 224.074 64.7135C224.876 64.7398 225.566 64.5557 226.145 64.1613C226.736 63.7669 227.216 63.0963 227.584 62.1497L228.077 60.8678L217.211 29.7073H226.046L232.318 51.9535H232.633L238.964 29.7073H247.858L236.084 63.2738C235.519 64.9042 234.75 66.3241 233.777 67.5337C232.817 68.7565 231.601 69.6966 230.128 70.3539C228.656 71.0245 226.881 71.3598 224.804 71.3598Z" fill="#FECE2F"/>
<circle cx="49.5" cy="49.5" r="49.5" fill="#FECE2F"/>
<path d="M49.7453 40.1057H49.1086C43.3068 40.1057 38.6035 44.2864 38.6035 49.4436V80.0038C38.6035 85.1609 43.3068 89.3416 49.1086 89.3416H49.7453C55.5471 89.3416 60.2503 85.1609 60.2503 80.0038V49.4436C60.2503 44.2864 55.5471 40.1057 49.7453 40.1057Z" fill="black"/>
<path d="M77.1221 26.8064V26.2404C77.1221 21.0833 72.4188 16.9026 66.617 16.9026L32.2368 16.9026C26.435 16.9026 21.7317 21.0833 21.7317 26.2404V26.8064C21.7317 31.9635 26.435 36.1442 32.2368 36.1442H66.617C72.4188 36.1442 77.1221 31.9635 77.1221 26.8064Z" fill="black"/>
<path d="M117.666 93L112.689 74.9145H115.724L119.754 90.5724H119.001L123.177 74.9145H126.163L130.338 90.5724H129.561L133.615 74.9145H136.625L131.673 93H128.444L124.245 77.5848H125.094L120.87 93H117.666ZM141.451 93.2913C140.561 93.2913 139.776 93.1376 139.096 92.8301C138.433 92.5064 137.915 92.0694 137.542 91.5192C137.17 90.9527 136.984 90.2892 136.984 89.5286C136.984 88.8165 137.138 88.1772 137.445 87.6108C137.769 87.0443 138.263 86.5669 138.926 86.1785C139.59 85.7901 140.423 85.5149 141.427 85.3531L145.99 84.6006V86.7611L141.961 87.4651C141.232 87.5946 140.698 87.8292 140.358 88.1691C140.019 88.4928 139.849 88.9136 139.849 89.4314C139.849 89.9331 140.035 90.3458 140.407 90.6695C140.795 90.977 141.289 91.1308 141.888 91.1308C142.632 91.1308 143.28 90.9689 143.83 90.6452C144.396 90.3216 144.833 89.8927 145.141 89.3586C145.448 88.8084 145.602 88.2015 145.602 87.5379V84.1636C145.602 83.5162 145.359 82.9903 144.874 82.5857C144.404 82.1649 143.773 81.9545 142.98 81.9545C142.252 81.9545 141.613 82.1487 141.062 82.5371C140.528 82.9093 140.132 83.3949 139.873 83.9937L137.591 82.8527C137.834 82.2053 138.23 81.6389 138.78 81.1534C139.331 80.6517 139.97 80.2633 140.698 79.9881C141.443 79.713 142.228 79.5754 143.053 79.5754C144.089 79.5754 145.003 79.7697 145.796 80.1581C146.605 80.5465 147.228 81.0886 147.665 81.7846C148.119 82.4643 148.345 83.2573 148.345 84.1636V93H145.723V90.621L146.282 90.6938C145.974 91.2279 145.578 91.6891 145.092 92.0775C144.623 92.4659 144.081 92.7653 143.466 92.9757C142.867 93.1861 142.195 93.2913 141.451 93.2913ZM151.553 93V74.6232H154.296V93H151.553ZM157.503 93V74.6232H160.246V93H157.503ZM169.62 93.2913C168.309 93.2913 167.143 92.9919 166.124 92.3931C165.12 91.7781 164.336 90.9527 163.769 89.917C163.203 88.865 162.919 87.6917 162.919 86.397C162.919 85.0699 163.203 83.8966 163.769 82.877C164.352 81.8574 165.129 81.0563 166.1 80.4737C167.071 79.8748 168.171 79.5754 169.401 79.5754C170.388 79.5754 171.27 79.7454 172.047 80.0852C172.824 80.4251 173.479 80.8944 174.013 81.4932C174.548 82.0759 174.952 82.7475 175.227 83.5081C175.519 84.2688 175.664 85.078 175.664 85.9357C175.664 86.1461 175.656 86.3646 175.64 86.5912C175.624 86.8177 175.591 87.0281 175.543 87.2223H165.08V85.0375H173.989L172.678 86.0328C172.84 85.2398 172.784 84.5358 172.508 83.9208C172.249 83.2897 171.845 82.796 171.295 82.44C170.761 82.0678 170.129 81.8817 169.401 81.8817C168.673 81.8817 168.025 82.0678 167.459 82.44C166.893 82.796 166.456 83.3139 166.148 83.9937C165.841 84.6572 165.719 85.4664 165.784 86.4212C165.703 87.3114 165.824 88.0882 166.148 88.7517C166.488 89.4153 166.957 89.9331 167.556 90.3054C168.171 90.6776 168.867 90.8637 169.644 90.8637C170.437 90.8637 171.108 90.6857 171.659 90.3297C172.225 89.9736 172.67 89.5124 172.994 88.9459L175.227 90.0383C174.968 90.6533 174.564 91.2117 174.013 91.7134C173.479 92.1989 172.832 92.5873 172.071 92.8786C171.327 93.1537 170.51 93.2913 169.62 93.2913ZM184.022 93.1457C182.646 93.1457 181.578 92.7572 180.818 91.9804C180.057 91.2036 179.677 90.1112 179.677 88.7032V82.3429H177.37V79.8668H177.735C178.35 79.8668 178.827 79.6887 179.167 79.3327C179.507 78.9766 179.677 78.4911 179.677 77.8761V76.8566H182.42V79.8668H185.406V82.3429H182.42V88.5818C182.42 89.0349 182.493 89.4234 182.638 89.747C182.784 90.0545 183.019 90.2973 183.342 90.4753C183.666 90.6371 184.087 90.7181 184.605 90.7181C184.734 90.7181 184.88 90.71 185.042 90.6938C185.203 90.6776 185.357 90.6614 185.503 90.6452V93C185.276 93.0324 185.025 93.0647 184.75 93.0971C184.475 93.1295 184.232 93.1457 184.022 93.1457Z" fill="#FECE2F"/>
<path d="M202.752 90.8604V92.8904C202.752 94.6104 201.152 96.0004 199.182 96.0004C197.212 96.0004 195.602 94.6104 195.602 92.8904V90.8604C195.602 92.5804 197.202 93.8004 199.182 93.8004C201.152 93.8004 202.752 92.5704 202.752 90.8604Z" stroke="#FECE2F" stroke-width="1.5" stroke-linecap="round" stroke-linejoin="round"/>
<path d="M202.75 88.11C202.75 88.61 202.61 89.07 202.37 89.47C201.78 90.44 200.57 91.05 199.17 91.05C197.77 91.05 196.56 90.43 195.97 89.47C195.73 89.07 195.59 88.61 195.59 88.11C195.59 87.25 195.99 86.48 196.63 85.92C197.28 85.35 198.17 85.01 199.16 85.01C200.15 85.01 201.04 85.36 201.69 85.92C202.35 86.47 202.75 87.25 202.75 88.11Z" stroke="#FECE2F" stroke-width="1.5" stroke-linecap="round" stroke-linejoin="round"/>
<path d="M202.752 88.11V90.86C202.752 92.58 201.152 93.8 199.182 93.8C197.212 93.8 195.602 92.57 195.602 90.86V88.11C195.602 86.39 197.202 85 199.182 85C200.172 85 201.062 85.35 201.712 85.91C202.352 86.47 202.752 87.25 202.752 88.11Z" stroke="#FECE2F" stroke-width="1.5" stroke-linecap="round" stroke-linejoin="round"/>
<path d="M214 84.9699V87.03C214 87.58 213.56 88.0299 213 88.0499H211.04C209.96 88.0499 208.97 87.2599 208.88 86.1799C208.82 85.5499 209.06 84.9599 209.48 84.5499C209.85 84.1699 210.36 83.95 210.92 83.95H213C213.56 83.97 214 84.4199 214 84.9699Z" stroke="#FECE2F" stroke-width="1.5" stroke-linecap="round" stroke-linejoin="round"/>
<path d="M194 84.5V82.5C194 79.78 195.64 77.88 198.19 77.56C198.45 77.52 198.72 77.5 199 77.5H208C208.26 77.5 208.51 77.51 208.75 77.55C211.33 77.85 213 79.76 213 82.5V83.95H210.92C210.36 83.95 209.85 84.17 209.48 84.55C209.06 84.96 208.82 85.55 208.88 86.18C208.97 87.26 209.96 88.05 211.04 88.05H213V89.5C213 92.5 211 94.5 208 94.5H205.5" stroke="#FECE2F" stroke-width="1.5" stroke-linecap="round" stroke-linejoin="round"/>
</svg>
